<?xml version="1.0" encoding="utf-8"?>
<!-- Generator: Adobe Illustrator 27.2.0, SVG Export Plug-In . SVG Version: 6.00 Build 0)  -->
<svg version="1.1" id="Layer_1" xmlns="http://www.w3.org/2000/svg" xmlns:xlink="http://www.w3.org/1999/xlink" x="0px" y="0px"
	 viewBox="0 0 1568.1 310.9" style="enable-background:new 0 0 1568.1 310.9;" xml:space="preserve">
<style type="text/css">
	.st0{fill:#3760F3;}
	.st1{fill:#1437C1;}
	.st2{fill:#101681;}
</style>
<g>
	<g>
		<g>
			<path d="M308.6,129.8c-6-7.9-13.7-14.4-22.9-19.2c-9.2-4.8-19.7-7.3-31.2-7.3c-10.9,0-20.9,2.1-29.6,6.3
				c-8.7,4.1-16.2,9.8-22.3,16.9c-6.1,7.1-10.9,15.4-14.2,24.7c-3.3,9.3-5,19.2-5,29.6c0,11.2,1.6,21.7,4.7,31.1
				c3.1,9.4,7.8,17.7,14,24.4c6.1,6.8,13.8,12.2,22.6,15.9c8.9,3.8,19.2,5.7,30.7,5.7c7.9,0,15.6-1.1,22.8-3.2
				c7.3-2.2,13.9-5.4,19.8-9.7c5.9-4.3,11-9.6,15.1-15.8c4.2-6.3,7.2-13.5,8.8-21.4l0.4-1.9h-33.1l-0.4,1
				c-2.7,7.6-6.7,13.4-12.1,17.2s-12.6,5.7-21.5,5.7c-6.4,0-12-1.1-16.6-3.3c-4.6-2.2-8.4-5.2-11.4-8.9c-3-3.7-5.3-8.1-6.8-13.1
				c-1.4-4.5-2.1-9.3-2.3-14.1h100.9c2.6,0,4.8-2,5.1-4.6c0.8-9.8,0-19.4-2.5-28.6C319,146.9,314.6,137.7,308.6,129.8z M218.3,166.4
				c0.3-4.6,1.3-8.9,3-12.8c1.9-4.4,4.4-8.3,7.5-11.6c3.1-3.2,6.8-5.9,11.2-7.7c4.3-1.8,9.2-2.8,14.5-2.8c5.3,0,9.8,1,13.9,3
				s7.7,4.7,10.6,8c2.9,3.3,5.2,7.2,6.9,11.6c1.5,4,2.5,8.1,2.9,12.4L218.3,166.4L218.3,166.4z"/>
			<path d="M463.4,107.2L463.4,107.2l-28.9,0.1l-0.3,1.1l-32,99.9c-0.3,1-1.2,1.4-1.9,1.4c-0.3,0-1.5-0.1-1.9-1.4l-33.3-100
				l-0.3-1.1h-30.5c-1.7,0-3.2,0.8-4.2,2.2c-1,1.4-1.2,3.1-0.6,4.7l49.7,136.5c0.7,2,2.7,3.3,4.8,3.3h30.6c2.1,0,4.1-1.3,4.8-3.4
				L468.2,114c0.6-1.6,0.3-3.3-0.6-4.7C466.6,108,465,107.2,463.4,107.2z"/>
			<path d="M595.4,129.8c-6-7.9-13.7-14.4-22.9-19.2c-9.2-4.8-19.7-7.3-31.2-7.3c-10.9,0-20.9,2.1-29.6,6.3
				c-8.7,4.1-16.2,9.8-22.3,16.9c-6.1,7.1-10.9,15.4-14.2,24.7c-3.3,9.3-5,19.2-5,29.6c0,11.2,1.6,21.7,4.7,31.1
				c3.1,9.4,7.8,17.7,14,24.4c6.1,6.8,13.8,12.2,22.6,15.9c8.9,3.8,19.2,5.7,30.7,5.7c7.9,0,15.6-1.1,22.8-3.2
				c7.3-2.2,13.9-5.4,19.8-9.7c5.9-4.3,11-9.6,15.1-15.8c4.2-6.3,7.2-13.5,8.8-21.4l0.4-1.9h-33.1l-0.4,1
				c-2.7,7.6-6.7,13.4-12.1,17.2s-12.6,5.7-21.5,5.7c-6.4,0-12-1.1-16.6-3.3c-4.6-2.2-8.4-5.2-11.4-8.9c-3-3.7-5.3-8.1-6.8-13.1
				c-1.4-4.5-2.1-9.3-2.3-14.1H606c2.6,0,4.8-2,5.1-4.6c0.8-9.8,0-19.4-2.5-28.6C605.9,146.9,601.4,137.7,595.4,129.8z M505.2,166.4
				c0.3-4.6,1.3-8.9,3-12.8c1.9-4.4,4.4-8.3,7.5-11.6c3.1-3.2,6.8-5.9,11.2-7.7c4.3-1.8,9.2-2.8,14.5-2.8c5.3,0,9.8,1,13.9,3
				s7.7,4.7,10.7,8c2.9,3.3,5.2,7.2,6.9,11.6c1.5,4,2.5,8.1,2.9,12.4L505.2,166.4L505.2,166.4z"/>
			<path d="M857.3,126.3c-5.7-7.1-12.9-12.8-21.5-16.8s-18.8-6.1-30.3-6.1c-4.2,0-8.5,0.5-12.7,1.6c-4.3,1-8.4,2.6-12.3,4.6
				c-3.9,2-7.5,4.4-10.7,7.3c-2.2,2-4.3,4.1-6,6.5v-68c0-2.8-2.3-5.1-5.1-5.1l0-0.1h-29.7V254h28c2.8,0,5.1-2.3,5.1-5.1v-11.3
				c2,3.1,4.4,5.8,7.1,8c3.7,3.1,7.9,5.5,12.5,7.4c4.5,1.9,9.4,3.2,14.4,3.9c5,0.6,10,1,14.8,1c10.8,0,20.3-2.2,28.3-6.4
				c7.9-4.3,14.6-10,19.9-17.1c5.2-7.1,9.1-15.3,11.7-24.5c2.5-9.2,3.8-18.8,3.8-28.5c0-10.7-1.4-20.8-4.2-30.2
				C867.3,141.7,863,133.4,857.3,126.3z M839.6,180.7c0,6.3-0.7,12.3-2.1,18.1c-1.3,5.8-3.6,11-6.7,15.6c-3.1,4.5-7.1,8.2-11.9,11.1
				c-4.7,2.8-10.6,4.2-17.6,4.2l-0.1-0.1c-6.2,0-11.7-1.3-16.4-3.7c-4.7-2.5-8.8-5.9-12.2-10.1c-3.4-4.3-6-9.5-7.6-15.4
				c-1.7-6-2.6-12.7-2.6-19.7c0-15,3.3-27.1,9.9-36c6.4-8.8,16.2-13.2,28.9-13.2c6.2,0,11.7,1.4,16.5,4.1c4.8,2.8,8.8,6.4,12,10.9
				c3.2,4.6,5.7,9.9,7.3,15.8C838.8,168.2,839.6,174.4,839.6,180.7z"/>
			<rect x="991.9" y="107.2" width="34.8" height="146.7"/>
			<path d="M1158.5,55.2v68c-2.1-2.7-4.4-5.1-7.1-7.2c-3.7-2.9-7.8-5.4-12.2-7.3c-4.4-1.9-9-3.3-13.7-4.1c-4.7-0.9-9.4-1.3-13.9-1.3
				c-7.9,0-15.8,1.5-23.5,4.4c-7.7,2.9-14.6,7.6-20.6,13.9c-6,6.3-10.8,14.3-14.4,23.8c-3.6,9.6-5.4,21.1-5.4,34.2
				c0,10.9,1.4,21.1,4.2,30.6c2.8,9.5,7.1,17.9,12.8,24.8c5.7,7,12.9,12.6,21.5,16.7c8.6,4,18.8,6.1,30.3,6.1
				c9.3,0,18.2-1.9,26.5-5.5c7.1-3.1,12.8-8,17-14.5v11.1c0,2.8,2.3,5.1,5.1,5.1h28V50.1h-29.7C1160.8,50.1,1158.5,52.4,1158.5,55.2
				z M1159.7,180.4c0,6.1-0.8,12.2-2.3,18.1c-1.5,5.8-3.9,11.1-7,15.8c-3.1,4.6-7.2,8.4-12,11.2c-4.8,2.8-10.7,4.2-17.4,4.2h-0.1
				c-6.6,0-12.3-1.3-17.1-4c-4.8-2.7-8.8-6.2-11.8-10.6c-3.1-4.5-5.5-9.6-7-15.4c-1.5-5.8-2.3-11.7-2.3-17.7
				c0-6.3,0.7-12.6,2.1-18.7c1.4-6,3.6-11.4,6.7-16.2c3.1-4.7,7.2-8.6,12-11.5c4.8-2.9,10.9-4.4,18-4.4c11.8,0,21,4.2,27.9,12.8
				C1156.2,152.8,1159.7,164.9,1159.7,180.4z"/>
			<path d="M1322.7,123.6c-4-6.3-9.3-11.2-15.8-14.4c-7.8-3.9-16.4-5.9-25.7-5.9h0c-10.4,0-19.8,2-28.1,6c-8.2,4-15.3,9.4-21,16.1
				c-5.7,6.7-10.1,14.6-13.1,23.4c-3,8.8-4.5,18.2-4.5,28c0,10.5,1.2,20.4,3.7,29.6c2.5,9.2,6.4,17.5,11.8,24.6
				c5.4,7.1,12.3,12.8,20.6,16.8c8.2,4.1,18.4,6.1,30,6.1c9.1,0,17.8-2.3,25.7-6.9c6.6-3.8,12.2-9,16.4-15.4v17.4
				c0,11.4-2.8,20.2-8.5,26.2c-5.6,5.9-14.7,9-27,9c-4,0-7.9-0.2-11.5-0.7c-3.5-0.4-6.8-1.4-9.6-2.9c-2.9-1.5-5.3-3.5-7.4-6.1
				c-2.1-2.6-3.6-6-4.4-10.2l-0.2-1.2h-34.6l0.2,1.7c0.8,8.6,3.3,15.9,7.5,21.9c4.2,5.9,9.5,10.7,15.7,14.3c6.1,3.6,13,6.2,20.5,7.7
				c7.4,1.5,14.9,2.2,22.1,2.2c23.1,0,41.1-5.5,53.5-16.4c12.4-10.9,18.7-27.6,18.7-49.6V103.3h-34.8L1322.7,123.6L1322.7,123.6z
				 M1285.5,225.8c-6.3,0-11.8-1.3-16.3-4c-4.5-2.6-8.3-6.1-11.2-10.4c-2.9-4.3-5.2-9.2-6.6-14.7c-1.4-5.5-2.2-11.2-2.2-17
				c0-5.8,0.6-11.7,1.9-17.6c1.3-5.8,3.3-11.1,6.2-15.6c2.8-4.5,6.6-8.2,11.2-11c4.5-2.8,10.2-4.2,17-4.2c6.8,0,12.3,1.3,16.9,3.7
				c4.7,2.5,8.5,5.9,11.4,10.1c2.9,4.3,5.2,9.3,6.6,14.8c1.4,5.6,2.2,11.4,2.2,17.4c0,5.9-0.7,12-2.1,17.8
				c-1.4,5.8-3.5,11.1-6.5,15.6c-2.9,4.5-6.7,8.2-11.4,10.9C1298,224.5,1292.2,225.8,1285.5,225.8z"/>
			<path d="M1517.7,157.1c-2.7-10.2-7.2-19.4-13.2-27.3c-6-7.9-13.7-14.4-22.9-19.2c-9.2-4.8-19.7-7.3-31.2-7.3
				c-10.9,0-20.9,2.1-29.6,6.3s-16.2,9.8-22.3,16.9c-6.1,7.1-10.9,15.4-14.2,24.7c-3.3,9.3-5,19.2-5,29.6c0,11.2,1.6,21.7,4.7,31.1
				c3.1,9.4,7.8,17.7,14,24.4c6.1,6.8,13.8,12.2,22.7,15.9c8.9,3.8,19.2,5.7,30.7,5.7c7.9,0,15.6-1.1,22.8-3.2
				c7.3-2.2,13.9-5.4,19.8-9.7s11-9.6,15.1-15.8c4.2-6.3,7.2-13.5,8.8-21.4l0.4-1.9h-33l-0.4,1c-2.7,7.6-6.7,13.4-12.1,17.2
				c-5.4,3.8-12.6,5.7-21.5,5.7c-6.4,0-12-1.1-16.6-3.3c-4.6-2.2-8.4-5.2-11.4-8.9c-3-3.7-5.3-8.1-6.8-13.1
				c-1.4-4.5-2.2-9.3-2.3-14.1h100.9c2.6,0,4.9-2,5.1-4.6C1521,176,1520.1,166.4,1517.7,157.1z M1435.9,134.2
				c4.3-1.8,9.2-2.8,14.5-2.8c5.3,0,9.8,1,13.9,3s7.7,4.7,10.6,8c2.9,3.3,5.3,7.2,6.9,11.6c1.5,4,2.5,8.1,3,12.4h-70.6l0,0
				c0.3-4.6,1.3-8.9,3-12.8c1.9-4.4,4.4-8.3,7.5-11.6C1427.8,138.7,1431.6,136.1,1435.9,134.2z"/>
			<path d="M1010.5,51.8h-1.7c-10,0-18.2,8.2-18.2,18.1s8.2,18.1,18.2,18.1h1.7c10,0,18.2-8.2,18.2-18.1
				C1028.7,59.9,1020.6,51.8,1010.5,51.8z"/>
			<path d="M709.8,105.9h-0.1c-46.4,1.2-81.4,28.6-81.4,63.9v79.1c0,2.8,2.3,5.1,5.1,5.1h27.8V175c0-21.1,23-37.6,52.2-37.6h1.5V111
				C714.9,108.2,712.6,105.9,709.8,105.9z"/>
			<path d="M971.4,105.9h-0.1c-46.4,1.2-81.4,28.6-81.4,63.9v79.1c0,2.8,2.3,5.1,5.1,5.1h27.8V175c0-21.1,23-37.6,52.2-37.6h1.5V111
				C976.5,108.2,974.2,105.9,971.4,105.9z"/>
		</g>
		<g>
			<path class="st0" d="M102.4,88.5c0,0-2.7,4.9-6.3,13.2c0,0,0,0,0,0c0,0,0,0,0,0c-6.8,15.7-16.6,43.7-16.6,73h24.6h16.7h5.3
				c0,0-0.5-21.2,9-46.9c17.6-47.9,65.1-81.2,119.2-81.2V0C189.3,0,132.5,35.7,102.4,88.5z"/>
			<path class="st1" d="M96.1,101.6C96.1,101.6,96.1,101.6,96.1,101.6c-1.2-1.6-2.4-3.1-3.7-4.6C70.2,70.7,37,54,0,54v46.6
				c40.9,0,74.2,33.2,74.2,74.1h5.3h24.6h16.7C120.9,147.2,111.6,121.9,96.1,101.6z"/>
			<path class="st2" d="M79.5,174.7h41.3c0-27.4-9.2-52.8-24.7-73C89.3,117.4,79.5,145.3,79.5,174.7z"/>
		</g>
	</g>
	<g>
		<path d="M1520.4,107.4v-4.1h19.2v4.1h-7.1v19.3h-4.9v-19.3H1520.4z"/>
		<path d="M1542.8,103.3h6.1l6.4,15.7h0.3l6.4-15.7h6.1v23.3h-4.8v-15.2h-0.2l-6,15.1h-3.3l-6-15.1h-0.2v15.3h-4.8L1542.8,103.3
			L1542.8,103.3z"/>
	</g>
</g>
</svg>
